<?xml version="1.0" standalone="no"?><!DOCTYPE svg PUBLIC "-//W3C//DTD SVG 1.1//EN" "http://www.w3.org/Graphics/SVG/1.1/DTD/svg11.dtd"><svg t="1611299670451" class="icon" viewBox="0 0 1024 1024" version="1.1" xmlns="http://www.w3.org/2000/svg" p-id="936" xmlns:xlink="http://www.w3.org/1999/xlink" width="200" height="200"><defs><style type="text/css"></style></defs><path d="M97.79565101 221.96258386h828.66501656c22.87837488 0 41.42522469-18.54684981 41.4252247-41.42522469s-18.54684981-41.42522469-41.4252247-41.42522468H97.79565101c-22.87837488 0-41.42522469 18.54684981-41.4252247 41.42522468s18.54684981 41.42522469 41.4252247 41.42522469zM97.78400016 552.35075792h509.54062001c22.87837488 0 41.42522469-18.54684981 41.42522468-41.42522468s-18.54684981-41.42522469-41.42522468-41.42522471H97.78400016c-22.87837488 0-41.42522469 18.54684981-41.42522469 41.42522471s18.54684981 41.42522469 41.42522469 41.42522468zM926.46066757 801.72025426H97.79565101c-22.87837488 0-41.42522469 18.54684981-41.4252247 41.42522469s18.54684981 41.42522469 41.4252247 41.4252247h828.66501656c22.87837488 0 41.42522469-18.54684981 41.4252247-41.4252247s-18.54684981-41.42522469-41.4252247-41.42522469zM762.05560162 718.60054092l207.12612345-207.12612346-207.12612345-207.12612345z" fill="" p-id="937"></path></svg>