<?xml version="1.0" standalone="no"?><!DOCTYPE svg PUBLIC "-//W3C//DTD SVG 1.1//EN" "http://www.w3.org/Graphics/SVG/1.1/DTD/svg11.dtd"><svg t="1611208609026" class="icon" viewBox="0 0 1024 1024" version="1.1" xmlns="http://www.w3.org/2000/svg" p-id="855" xmlns:xlink="http://www.w3.org/1999/xlink" width="200" height="200"><defs><style type="text/css"></style></defs><path d="M819.5132513 995.29428806H204.4867487c-68.48970482 0-124.27567408-55.78596925-124.27567407-124.27567408V152.98138602c0-68.48970482 55.78596925-124.27567408 124.27567407-124.27567408h615.0265026c68.48970482 0 124.27567408 55.78596925 124.27567407 124.27567408v718.03722796c0 68.48970482-55.78596925 124.27567408-124.27567407 124.27567408zM204.4867487 111.55616132c-22.78387358 0-41.42522469 18.64135111-41.42522469 41.4252247v718.03722796c0 22.78387358 18.64135111 41.42522469 41.42522469 41.4252247h615.0265026c22.78387358 0 41.42522469-18.64135111 41.42522469-41.4252247V152.98138602c0-22.78387358-18.64135111-41.42522469-41.42522469-41.4252247H204.4867487z" p-id="856"></path><path d="M779.88311967 320.0631256H238.59351703c-22.92195766 0-41.42522469-18.50326702-41.42522468-41.42522469s18.50326702-41.42522469 41.42522468-41.4252247h541.28960264c22.92195766 0 41.42522469 18.50326702 41.42522468 41.4252247s-18.50326702 41.42522469-41.42522468 41.42522469zM779.88311967 495.42991013H238.59351703c-22.92195766 0-41.42522469-18.50326702-41.42522468-41.4252247s18.50326702-41.42522469 41.42522468-41.42522468h541.28960264c22.92195766 0 41.42522469 18.50326702 41.42522468 41.42522468s-18.50326702 41.42522469-41.42522468 41.4252247zM560.3294288 673.5583763H238.59351703c-22.92195766 0-41.42522469-18.50326702-41.42522468-41.42522469s18.50326702-41.42522469 41.42522468-41.4252247h321.73591177c22.92195766 0 41.42522469 18.50326702 41.42522469 41.4252247s-18.50326702 41.42522469-41.42522469 41.42522469z" p-id="857"></path></svg>