<?xml version="1.0" standalone="no"?><!DOCTYPE svg PUBLIC "-//W3C//DTD SVG 1.1//EN" "http://www.w3.org/Graphics/SVG/1.1/DTD/svg11.dtd"><svg t="1611209203094" class="icon" viewBox="0 0 1024 1024" version="1.1" xmlns="http://www.w3.org/2000/svg" p-id="817" xmlns:xlink="http://www.w3.org/1999/xlink" width="200" height="200"><defs><style type="text/css"></style></defs><path d="M511.24110222 1.51665778c-281.51352889 0-509.72444445 228.21091555-509.72444444 509.72444444s228.21091555 509.72444445 509.72444444 509.72444445 509.72444445-228.21091555 509.72444445-509.72444445-228.21091555-509.72444445-509.72444445-509.72444444z m0 946.63111111c-59.01425778 0-116.224-11.54161778-170.04202667-34.304-40.97251555-17.32949333-78.64661333-40.58453333-112.42609777-69.28725334 13.85472-36.39182222 48.04380445-72.67555555 95.82705777-101.15185777C380.23281778 710.24981333 448.53703111 691.23413333 512 691.23413333c63.29571555 0 131.31776 18.95310222 186.62513778 51.99985778 47.51587555 28.39096889 81.56615111 64.63943111 95.41745777 101.03921778-33.86481778 28.83356445-71.65269333 52.18417778-112.76060444 69.57056-53.81575111 22.76238222-111.02663111 34.304-170.04088889 34.304z m337.08714667-158.89976889c-23.31648-40.88832-61.84163555-78.34168889-112.35214222-108.52238222C668.72888889 640.54499555 589.18570667 618.41635555 512 618.41635555c-77.32792889 0-157.12028445 22.17301333-224.67811555 62.43555556-50.79495111 30.27171555-89.49304889 67.80472889-112.86186667 108.75562667-27.11893333-32.7168-49.19068445-69.00849778-65.82044445-108.32554667-22.76238222-53.81688889-34.304-111.02776889-34.304-170.04202666s11.54161778-116.224 34.304-170.04202667c22.00120889-52.01806222 53.51424-98.75000889 93.66300445-138.89763556 40.14762667-40.14876445 86.87957333-71.66065778 138.89763555-93.66300444 53.81688889-22.76238222 111.02776889-34.304 170.04202667-34.304 59.01425778 0 116.224 11.54161778 170.04202667 34.304 52.01806222 22.00120889 98.75000889 53.51424 138.89763555 93.66300444 40.14876445 40.14762667 71.66065778 86.87957333 93.66300445 138.89763556 22.76238222 53.81688889 34.304 111.02776889 34.304 170.04202667s-11.54161778 116.224-34.304 170.04202666c-16.56945778 39.17255111-38.53539555 75.34364445-65.51665778 107.96600889z" fill="" p-id="818"></path><path d="M512 180.02261333c-100.37930667 0-182.04444445 81.66513778-182.04444445 182.04444445s81.66513778 182.04444445 182.04444445 182.04444444c100.38044445 0 182.04444445-81.664 182.04444445-182.04444444s-81.664-182.04444445-182.04444445-182.04444445z m0 291.27111112c-60.22826667 0-109.22666667-48.9984-109.22666667-109.22666667s48.9984-109.22666667 109.22666667-109.22666667 109.22666667 48.9984 109.22666667 109.22666667-48.9984 109.22666667-109.22666667 109.22666667z" fill="" p-id="819"></path></svg>