<?xml version="1.0" standalone="no"?><!DOCTYPE svg PUBLIC "-//W3C//DTD SVG 1.1//EN" "http://www.w3.org/Graphics/SVG/1.1/DTD/svg11.dtd"><svg t="1611209321145" class="icon" viewBox="0 0 1024 1024" version="1.1" xmlns="http://www.w3.org/2000/svg" p-id="816" xmlns:xlink="http://www.w3.org/1999/xlink" width="200" height="200"><defs><style type="text/css"></style></defs><path d="M884.6556864 295.60470613l19.27529387-19.27529387c6.4250976-12.85019627 6.4250976-25.70039253 6.42509866-38.5505888-6.4250976-12.85019627-12.85019627-25.70039253-25.70039253-32.12549013L569.82588267 25.75058773c-38.55058773-25.70039253-89.9513728-25.70039253-128.5019616 0L132.919216 205.65333333c-12.85019627 0-19.27529387 6.4250976-19.27529493 19.27529387-6.4250976 12.85019627-12.85019627 25.70039253-6.4250976 38.5505888 6.4250976 12.85019627 12.85019627 25.70039253 25.70039253 32.12549013L447.74901973 475.50745066c19.27529387 12.85019627 44.9756864 19.27529387 64.25098027 19.27529494s44.9756864-6.4250976 64.25098027-19.27529494l308.40470613-179.90274453zM473.44941227 417.68156906L184.32 250.62901973l295.55450987-167.05254933c19.27529387-12.85019627 44.9756864-12.85019627 64.25098026 0L833.2549024 250.62901973 537.70039253 417.68156906c-19.27529387 12.85019627-44.9756864 12.85019627-64.25098026 0zM415.6235296 526.90823573l-257.00392213-147.77725547c-12.85019627 0-19.27529387-6.4250976-32.12549014-6.4250976-38.55058773 0-64.25098027 32.12549013-64.25098026 64.25098027v327.68c0 44.9756864 25.70039253 89.9513728 64.25098026 109.22666667l257.00392214 147.7772544c12.85019627 6.4250976 19.27529387 6.4250976 32.12549013 6.42509866 38.55058773 0 64.25098027-25.70039253 64.25098027-64.25098026v-327.68c0-44.9756864-25.70039253-83.52627413-64.25098027-109.22666667z m0 443.33176427l-257.00392213-147.7772544c-19.27529387-12.85019627-32.12549013-32.12549013-32.12549014-57.82588267V436.95686293l12.85019627-25.70039253L126.49411733 436.95686293l257.00392214 147.7772544c19.27529387 12.85019627 32.12549013 32.12549013 32.12549013 57.82588267v327.68zM897.50588267 372.70588266c-12.85019627 0-19.27529387 0-32.12549014 6.4250976l-257.00392213 147.77725547c-38.55058773 25.70039253-64.25098027 64.25098027-64.25098027 109.22666667v327.68c0 38.55058773 25.70039253 64.25098027 64.25098027 64.25098026 12.85019627 0 19.27529387 0 32.12549013-6.42509866l257.00392214-147.7772544c38.55058773-25.70039253 64.25098027-64.25098027 64.25098026-109.22666667V436.95686293c0-32.12549013-25.70039253-64.25098027-64.25098026-64.25098027z m0 391.93098027c0 25.70039253-12.85019627 44.9756864-32.12549014 57.82588267l-257.00392213 147.7772544v-327.68c0-25.70039253 12.85019627-44.9756864 32.12549013-57.82588267L897.50588267 436.95686293v327.68z" p-id="817"></path></svg>